<svg width="33" height="29" viewBox="0 0 33 29" fill="none" xmlns="http://www.w3.org/2000/svg">
<path d="M26.8112 16.9193C27.6707 15.6896 28.1748 14.1932 28.1748 12.5791C28.1748 8.38967 24.7786 4.99351 20.5892 4.99351C17.1385 4.99351 14.2259 7.29776 13.3062 10.4515V19.0995H27.0476L26.8112 16.9193Z" fill="#FFD900"/>
<path d="M28.1748 12.5791C28.1748 8.38967 24.7787 4.99351 20.5893 4.99351C20.3375 4.99351 20.089 5.00725 19.8435 5.03119C23.6766 5.41188 26.6703 8.64575 26.6703 12.5791C26.6703 14.1932 26.1662 15.6896 25.3067 16.9193L25.5431 19.0995H27.0475L26.8112 16.9193C27.6707 15.6896 28.1748 14.1932 28.1748 12.5791Z" fill="#FFBB00"/>
<path d="M32.5094 13.0697H30.3421C30.0712 13.0697 29.8516 12.8501 29.8516 12.5791C29.8516 12.3081 30.0712 12.0885 30.3421 12.0885H32.5094C32.7804 12.0885 33 12.3081 33 12.5791C33 12.85 32.7804 13.0697 32.5094 13.0697Z" fill="#FFD900"/>
<path d="M27.4861 6.17236C27.3605 6.17236 27.2349 6.12448 27.1392 6.02871C26.9476 5.83712 26.9476 5.52649 27.1392 5.33496L28.6717 3.80238C28.8633 3.61072 29.1739 3.61079 29.3655 3.80231C29.5571 3.9939 29.5571 4.30454 29.3655 4.49606L27.833 6.02865C27.7372 6.12441 27.6116 6.17236 27.4861 6.17236Z" fill="#FFD900"/>
<path d="M20.5893 3.31467C20.3184 3.31467 20.0988 3.09508 20.0988 2.82408V0.656811C20.0988 0.385812 20.3184 0.166226 20.5893 0.166226C20.8603 0.166226 21.0799 0.385812 21.0799 0.656811V2.82408C21.0799 3.09508 20.8603 3.31467 20.5893 3.31467Z" fill="#FFD900"/>
<path d="M13.692 6.17079C13.5665 6.17079 13.4409 6.12291 13.3452 6.02714L11.8126 4.49462C11.621 4.30297 11.621 3.9924 11.8126 3.80081C12.0042 3.60928 12.3149 3.60928 12.5064 3.80081L14.0389 5.33333C14.2305 5.52498 14.2305 5.83556 14.0389 6.02714C13.9431 6.12291 13.8176 6.17079 13.692 6.17079Z" fill="#FFD900"/>
<path d="M16.8564 4.05741C16.6639 4.05741 16.4812 3.9434 16.403 3.75443L15.9883 2.75324C15.8846 2.50291 16.0035 2.21595 16.2538 2.11228C16.504 2.0086 16.7911 2.12739 16.8947 2.37778L17.3095 3.37897C17.4131 3.62929 17.2943 3.91625 17.0439 4.01993C16.9825 4.04531 16.9189 4.05741 16.8564 4.05741Z" fill="#FFA400"/>
<path d="M11.5767 9.33669C11.5141 9.33669 11.4505 9.32466 11.3891 9.29921L10.3879 8.88451C10.1376 8.78083 10.0188 8.49387 10.1224 8.24354C10.2261 7.99328 10.5131 7.8741 10.7634 7.97804L11.7646 8.39274C12.0149 8.49642 12.1338 8.78338 12.0301 9.03371C11.9519 9.22262 11.7692 9.33669 11.5767 9.33669Z" fill="#FFA400"/>
<path d="M30.6027 17.2175C30.5401 17.2175 30.4765 17.2055 30.4151 17.18L29.4139 16.7653C29.1636 16.6616 29.0448 16.3747 29.1484 16.1244C29.2521 15.8741 29.5392 15.755 29.7894 15.8589L30.7906 16.2736C31.0409 16.3772 31.1598 16.6642 31.0561 16.9145C30.9779 17.1034 30.7952 17.2175 30.6027 17.2175Z" fill="#FFA400"/>
<path d="M29.6019 9.33669C29.4094 9.33669 29.2267 9.22268 29.1484 9.03371C29.0448 8.78338 29.1636 8.49642 29.4139 8.39274L30.4151 7.97803C30.6655 7.87436 30.9524 7.99321 31.0561 8.24354C31.1598 8.49387 31.0409 8.78083 30.7906 8.8845L29.7894 9.29921C29.728 9.32466 29.6644 9.33669 29.6019 9.33669Z" fill="#FFA400"/>
<path d="M24.3222 4.05741C24.2596 4.05741 24.196 4.04538 24.1346 4.01993C23.8843 3.91625 23.7655 3.62929 23.8691 3.37897L24.2838 2.37778C24.3875 2.12752 24.6745 2.0084 24.9248 2.11228C25.1751 2.21595 25.294 2.50291 25.1903 2.75324L24.7756 3.75443C24.6974 3.94327 24.5147 4.05741 24.3222 4.05741Z" fill="#FFA400"/>
<path d="M26.4745 16.9136H21.928C21.7383 16.9136 21.5772 16.7776 21.5422 16.5911C20.878 13.0477 17.7505 10.3725 14.0052 10.4122C9.83571 10.4563 6.50189 13.9032 6.50189 18.073V18.6885C6.50189 18.9053 6.32619 19.081 6.10942 19.081H4.93764C2.24885 19.081 0.0200874 21.2316 0.000136951 23.9203C-0.0199443 26.6305 2.17094 28.8338 4.87642 28.8338H26.5493C29.856 28.8338 32.5338 26.1409 32.5092 22.8286C32.4849 19.5422 29.7609 16.9136 26.4745 16.9136Z" fill="#C8EFFE"/>
<path d="M26.4746 16.9136H24.9701C28.2565 16.9136 30.9804 19.5422 31.0048 22.8285C31.0293 26.1409 28.3516 28.8338 25.0449 28.8338H26.5494C29.8561 28.8338 32.5339 26.1409 32.5093 22.8285C32.4849 19.5422 29.7609 16.9136 26.4746 16.9136Z" fill="#99E2FC"/>
<path d="M20.0379 16.5911C20.0728 16.7776 20.2338 16.9137 20.4236 16.9137H21.928C21.7383 16.9137 21.5773 16.7776 21.5423 16.5911C20.8781 13.0477 17.7506 10.3725 14.0053 10.4122C13.7805 10.4145 13.5582 10.4274 13.3386 10.4492C16.7048 10.7822 19.4238 13.3155 20.0379 16.5911Z" fill="#99E2FC"/>
<path d="M9.75278 19.0809C10.0238 19.0809 10.2434 18.8614 10.2434 18.5904C10.2434 18.3194 10.0238 18.0998 9.75278 18.0998H6.50183V18.6884C6.50183 18.9052 6.32614 19.0809 6.10937 19.0809H4.93759C4.93713 19.0809 4.93674 19.0809 4.93628 19.0809H9.75278Z" fill="#99E2FC"/>
</svg>
