<svg width="27" height="27" viewBox="0 0 27 27" fill="none" xmlns="http://www.w3.org/2000/svg">
<path d="M13.5 26.9999C20.9558 26.9999 26.9999 20.9558 26.9999 13.5C26.9999 6.04414 20.9558 0 13.5 0C6.04414 0 0 6.04414 0 13.5C0 20.9558 6.04414 26.9999 13.5 26.9999Z" fill="#333333"/>
<path d="M20.6391 15.4419C18.0887 17.9923 13.9536 17.9923 11.4032 15.4419C8.85279 12.8915 8.85279 8.75636 11.4032 6.20597C11.935 5.67418 12.5357 5.25372 13.1765 4.94374C11.0778 4.9997 8.9957 5.82833 7.39391 7.43006C4.07442 10.7496 4.07442 16.1316 7.39391 19.4511C10.7134 22.7706 16.0954 22.7706 19.4149 19.4511C21.0167 17.8493 21.8453 15.7673 21.9012 13.6685C21.5913 14.3093 21.1709 14.9101 20.6391 15.4419Z" fill="#FCD57E"/>
<path d="M18.7635 8.09849L19.0645 10.8222L19.3657 8.09849L22.0894 7.79742L19.3657 7.49625L19.0645 4.77251L18.7635 7.49625L16.0397 7.79742L18.7635 8.09849Z" fill="white"/>
<path d="M5.92566 21.6546L6.14135 23.6056L6.35704 21.6546L8.30809 21.4389L6.35704 21.2232L6.14135 19.2721L5.92566 21.2232L3.97461 21.4389L5.92566 21.6546Z" fill="white"/>
<path d="M13.0977 12.9762L12.7113 13.3626L13.0977 13.749L13.4841 13.3626L13.0977 12.9762Z" fill="white"/>
<path d="M22.3655 10.0847L21.9791 10.4711L22.3655 10.8575L22.7519 10.4711L22.3655 10.0847Z" fill="white"/>
<path d="M24.0048 14.8859L23.6184 15.2723L24.0048 15.6587L24.3912 15.2723L24.0048 14.8859Z" fill="white"/>
<path d="M4.28458 6.45425L3.89819 6.84064L4.28458 7.22703L4.67098 6.84064L4.28458 6.45425Z" fill="white"/>
<path d="M18.5364 22.1113L18.15 22.4977L18.5364 22.8841L18.9228 22.4977L18.5364 22.1113Z" fill="white"/>
<path d="M6.47416 5.04877L6.08777 5.43516L6.47416 5.82155L6.86055 5.43516L6.47416 5.04877Z" fill="white"/>
</svg>
