<svg width="26" height="26" viewBox="0 0 26 26" fill="none" xmlns="http://www.w3.org/2000/svg">
<g clip-path="url(#clip0)">
<path d="M23.7148 3.04688C24.1355 3.04688 24.4766 2.70584 24.4766 2.28516C24.4766 1.86447 24.1355 1.52344 23.7148 1.52344C23.2942 1.52344 22.9531 1.86447 22.9531 2.28516C22.9531 2.70584 23.2942 3.04688 23.7148 3.04688Z" fill="#DDDCE6"/>
<path d="M25.2383 9.14062C25.659 9.14062 26 8.79959 26 8.37891C26 7.95822 25.659 7.61719 25.2383 7.61719C24.8176 7.61719 24.4766 7.95822 24.4766 8.37891C24.4766 8.79959 24.8176 9.14062 25.2383 9.14062Z" fill="#DDDCE6"/>
<path d="M20.668 4.57031C19.4035 4.57031 18.3828 3.54966 18.3828 2.28516C18.3828 1.85854 18.0477 1.52344 17.6211 1.52344C17.1945 1.52344 16.8594 1.85854 16.8594 2.28516C16.8594 3.54966 15.7879 4.57031 14.5234 4.57031C14.0968 4.57031 13.7617 4.90542 13.7617 5.33203C13.7617 5.75864 14.0968 6.09375 14.5234 6.09375C15.7879 6.09375 16.8594 7.1144 16.8594 8.37891C16.8594 8.80552 17.1945 9.14063 17.6211 9.14063C18.0477 9.14063 18.3828 8.80552 18.3828 8.37891C18.3828 7.1144 19.4035 6.09375 20.668 6.09375C21.0946 6.09375 21.4297 5.75864 21.4297 5.33203C21.4297 4.90542 21.0946 4.57031 20.668 4.57031Z" fill="#5A5AE2"/>
<path d="M21.4297 5.33203C21.4297 5.75864 21.0946 6.09375 20.668 6.09375C19.4035 6.09375 18.3828 7.1144 18.3828 8.37891C18.3828 8.80552 18.0477 9.14062 17.6211 9.14062V1.52344C18.0477 1.52344 18.3828 1.85854 18.3828 2.28516C18.3828 3.54966 19.4035 4.57031 20.668 4.57031C21.0946 4.57031 21.4297 4.90542 21.4297 5.33203Z" fill="#191970"/>
<path d="M25.0248 16.2775C24.7481 16.0848 24.3754 16.0967 24.1106 16.3095C22.4689 17.6328 20.4879 18.332 18.3828 18.332C16.0405 18.332 13.8574 17.3883 12.2383 15.9344C10.3732 14.2599 9.19141 11.8387 9.19141 9.14062C9.19141 6.51341 10.3154 4.07834 12.2383 2.35854C12.6222 2.01515 13.0262 1.6901 13.4724 1.40887C13.7595 1.22809 13.8592 0.877754 13.7647 0.551941C13.671 0.226129 13.3392 0 13 0C12.7429 0 12.4917 0.0237148 12.2383 0.0385938C5.45309 0.436262 0 6.06597 0 12.9492C0 19.8325 5.45309 25.5637 12.2383 25.9614C12.4917 25.9763 12.7429 26 13 26C18.5522 26 23.5296 22.4114 25.3104 17.1463C25.4191 16.8257 25.3023 16.4716 25.0248 16.2775Z" fill="#FFDA2D"/>
<path d="M25.3104 17.1463C25.4191 16.8257 25.3023 16.4716 25.0248 16.2775C24.7481 16.0848 24.3754 16.0967 24.1106 16.3095C22.4689 17.6328 20.4879 18.332 18.3828 18.332C16.0405 18.332 13.8574 17.3883 12.2383 15.9345V25.9614C12.4917 25.9763 12.7429 26 13 26C18.5522 26 23.5296 22.4114 25.3104 17.1463Z" fill="#FDBF00"/>
<path d="M13.4724 1.40887C13.7595 1.22809 13.8592 0.877754 13.7647 0.551941C13.671 0.226129 13.3392 0 13 0C12.7429 0 12.4917 0.0237148 12.2383 0.0385937V2.35854C12.6222 2.01515 13.0262 1.69005 13.4724 1.40887Z" fill="#FDBF00"/>
</g>
<defs>
<clipPath id="clip0">
<rect width="26" height="26" fill="white"/>
</clipPath>
</defs>
</svg>
