<svg width="242" height="107" viewBox="0 0 242 107" fill="none" xmlns="http://www.w3.org/2000/svg">
<g clip-path="url(#clip0)">
<path d="M72.2932 88.1005C71.4578 94.6496 68.3859 100.641 65.1087 106.413C65.0003 106.61 64.8889 106.803 64.7746 107H30.7135C30.0247 106.821 29.3447 106.625 28.6675 106.413C24.8204 105.241 21.1885 103.454 17.9128 101.12C5.38176 92.0863 0.559813 75.0169 2.73778 59.7219C4.09205 50.2194 8.2602 40.5175 16.3768 35.3996C20.6623 32.6925 26.1671 31.8127 31.1004 32.8186C31.2295 32.8421 31.3585 32.8714 31.4903 32.8978C35.7347 33.8539 39.516 36.2296 41.6676 40.057C45.5368 46.9346 43.2329 55.4546 41.3306 63.1094C39.434 70.7642 38.4051 79.9266 43.91 85.5724C42.0926 80.2198 43.8865 73.835 48.2277 70.2158C51.5078 67.4853 56.0747 66.4617 60.24 67.3093C60.6386 67.3944 61.0314 67.4911 61.4183 67.6085C62.3534 67.8825 63.255 68.2602 64.1062 68.7347C70.5989 72.3627 73.2283 80.7184 72.2932 88.1005Z" fill="#F2F2F2"/>
<path d="M52.097 106.413C53.0408 106.633 53.9876 106.827 54.9402 107H49.7901C49.1158 106.818 48.4445 106.625 47.7793 106.413C46.3165 105.956 44.8763 105.431 43.4586 104.838C37.772 102.451 32.5338 98.8671 28.5708 94.0982C26.6326 91.7878 25.0499 89.2008 23.8749 86.4229C22.6009 83.2831 21.7912 79.9742 21.4714 76.6007C20.7532 69.6791 21.486 62.5668 22.8549 55.7684C24.2675 48.7222 26.5478 41.8785 29.6437 35.3937C30.0159 34.6165 30.4009 33.8442 30.7986 33.0767C30.8259 33.0136 30.8673 32.9575 30.9196 32.9127C30.9719 32.868 31.0338 32.8358 31.1004 32.8186C31.2357 32.7924 31.3759 32.8209 31.4903 32.8978C31.6276 32.9766 31.7294 33.1052 31.7746 33.2569C31.8199 33.4086 31.8052 33.572 31.7336 33.7132C28.5417 39.9414 26.1221 46.5364 24.5286 53.3517C22.9692 60.0006 22.084 66.9574 22.3858 73.7939C22.6731 80.1817 24.3411 86.464 28.1252 91.6874C31.5812 96.4563 36.3532 100.216 41.6324 102.777C44.9739 104.376 48.484 105.596 52.097 106.413Z" fill="white"/>
<path d="M63.3998 107H61.8814C61.7113 106.806 61.5472 106.61 61.386 106.413C57.9274 102.209 55.5844 97.1995 54.5737 91.8487C53.3463 85.1713 54.3011 78.2758 57.2968 72.1838C58.1326 70.4755 59.1174 68.8444 60.2398 67.3093C60.6384 67.3944 61.0313 67.4912 61.4182 67.6085C58.466 71.5221 56.4803 76.0785 55.6231 80.9062C54.8584 85.4298 55.1127 90.0672 56.3673 94.48C57.6219 98.8929 59.8452 102.97 62.8751 106.413C63.045 106.61 63.2209 106.806 63.3998 107Z" fill="white"/>
<path d="M200.183 102.012C200.404 103.741 201.214 105.322 202.079 106.845C202.108 106.897 202.137 106.948 202.167 107H211.157C211.339 106.953 211.518 106.901 211.697 106.845C212.712 106.536 213.671 106.064 214.535 105.448C217.842 103.064 219.115 98.5591 218.54 94.5225C218.183 92.0146 217.083 89.454 214.941 88.1033C213.777 87.3945 212.389 87.1512 211.055 87.4222C211.021 87.4284 210.987 87.4361 210.952 87.4431C210.396 87.5505 209.87 87.7745 209.407 88.1001C208.944 88.4258 208.555 88.8458 208.266 89.3325C207.245 91.1476 207.853 93.3962 208.355 95.4165C208.855 97.4367 209.127 99.8548 207.674 101.345C207.887 100.722 207.93 100.053 207.799 99.4077C207.668 98.7623 207.368 98.1634 206.929 97.6726C206.49 97.1818 205.929 96.8168 205.302 96.6151C204.676 96.4134 204.007 96.3823 203.364 96.5249C203.259 96.5474 203.155 96.5729 203.053 96.6039C202.806 96.6762 202.568 96.7759 202.344 96.9011C200.63 97.8586 199.936 100.064 200.183 102.012Z" fill="#F2F2F2"/>
<path d="M205.513 106.845C205.264 106.903 205.014 106.954 204.763 107H206.122C206.3 106.952 206.477 106.901 206.653 106.845C207.039 106.724 207.419 106.586 207.793 106.43C209.311 105.813 210.658 104.841 211.722 103.595C212.234 102.985 212.652 102.302 212.962 101.569C213.298 100.741 213.512 99.8674 213.596 98.9771C213.75 97.1364 213.627 95.2831 213.231 93.4791C212.858 91.6194 212.256 89.8132 211.439 88.1018C211.341 87.8967 211.239 87.6928 211.134 87.4903C211.127 87.4736 211.116 87.4588 211.102 87.447C211.089 87.4352 211.072 87.4267 211.055 87.4222C211.019 87.4153 210.982 87.4228 210.952 87.4431C210.916 87.4639 210.889 87.4978 210.877 87.5378C210.865 87.5779 210.869 87.621 210.888 87.6583C211.73 89.302 212.369 91.0426 212.789 92.8413C213.222 94.6055 213.412 96.4206 213.355 98.2363C213.324 99.9251 212.797 101.567 211.84 102.959C210.909 104.212 209.685 105.217 208.275 105.885C207.393 106.308 206.467 106.63 205.513 106.845Z" fill="white"/>
<path d="M202.53 107H202.931C202.976 106.949 203.019 106.897 203.062 106.845C203.975 105.736 204.593 104.413 204.86 103.001C205.184 101.239 204.932 99.4192 204.141 97.8114C203.92 97.3605 203.66 96.93 203.364 96.5249C203.259 96.5474 203.155 96.5729 203.053 96.6039C203.832 97.6367 204.356 98.8393 204.583 100.113C204.784 101.307 204.717 102.531 204.386 103.696C204.055 104.86 203.468 105.936 202.669 106.845C202.624 106.897 202.577 106.949 202.53 107Z" fill="white"/>
<path d="M119.158 62.3261H91.0236L90.7253 53.671C90.7124 53.2958 90.7809 52.9223 90.9261 52.5761C91.0713 52.2299 91.2897 51.9194 91.5664 51.6657C91.843 51.4121 92.1713 51.2215 92.5286 51.107C92.886 50.9925 93.2639 50.9569 93.6363 51.0025L110.009 53.0084H110.011C112.438 53.0149 114.764 53.9838 116.478 55.7029C118.193 57.4219 119.156 59.7509 119.158 62.1795V62.3261Z" fill="#F2F2F2"/>
<path d="M106.618 31.625H86.996C86.735 31.6249 86.4766 31.6763 86.2355 31.7762C85.9944 31.876 85.7753 32.0225 85.5908 32.2071C85.4062 32.3918 85.2599 32.611 85.16 32.8522C85.0602 33.0935 85.0088 33.352 85.0089 33.6131V53.2465C85.0088 53.5076 85.0602 53.7661 85.16 54.0074C85.2599 54.2486 85.4062 54.4678 85.5908 54.6525C85.7753 54.8371 85.9944 54.9836 86.2355 55.0834C86.4766 55.1833 86.735 55.2347 86.996 55.2346H106.618C106.879 55.2347 107.138 55.1833 107.379 55.0835C107.62 54.9836 107.839 54.8371 108.024 54.6525C108.208 54.4678 108.354 54.2486 108.454 54.0074C108.554 53.7661 108.606 53.5076 108.605 53.2465V33.6131C108.606 33.352 108.554 33.0935 108.454 32.8522C108.354 32.611 108.208 32.3918 108.024 32.2071C107.839 32.0225 107.62 31.876 107.379 31.7762C107.138 31.6763 106.879 31.6249 106.618 31.625Z" fill="#CCCCCC"/>
<path d="M102.199 46.306L92.9345 48.1112C92.3849 48.2176 91.8156 48.1016 91.3515 47.7886C90.8873 47.4755 90.5662 46.9911 90.4586 46.4415L89.7464 42.7824C89.64 42.2325 89.756 41.6629 90.0688 41.1985C90.3817 40.734 90.8659 40.4127 91.4152 40.3051L100.68 38.4999C101.229 38.3935 101.799 38.5095 102.263 38.8225C102.727 39.1355 103.048 39.62 103.156 40.1696L103.868 43.8287C103.974 44.3786 103.858 44.9482 103.545 45.4126C103.233 45.8771 102.748 46.1983 102.199 46.306Z" fill="#3F3D56"/>
<path d="M100.346 41.9831L93.2752 43.3608C93.1459 43.386 93.0119 43.3587 92.9026 43.285C92.7933 43.2114 92.7178 43.0973 92.6926 42.9679C92.6674 42.8385 92.6947 42.7044 92.7683 42.5951C92.8419 42.4858 92.956 42.4102 93.0853 42.385L100.156 41.0074C100.285 40.9822 100.419 41.0094 100.528 41.0831C100.637 41.1568 100.713 41.2708 100.738 41.4002C100.763 41.5296 100.736 41.6637 100.663 41.7731C100.589 41.8824 100.475 41.9579 100.346 41.9831Z" fill="white"/>
<path d="M98.9712 44.0233L95.3141 44.7358C95.1848 44.761 95.0508 44.7338 94.9415 44.6601C94.8323 44.5864 94.7568 44.4723 94.7316 44.3429C94.7064 44.2135 94.7336 44.0794 94.8073 43.9701C94.8809 43.8608 94.9949 43.7852 95.1242 43.76L98.7813 43.0475C98.8453 43.035 98.9112 43.0353 98.9751 43.0483C99.0391 43.0613 99.0998 43.0867 99.1539 43.1232C99.208 43.1597 99.2544 43.2065 99.2904 43.2609C99.3265 43.3153 99.3514 43.3763 99.3639 43.4404C99.3764 43.5044 99.3761 43.5703 99.3631 43.6343C99.3501 43.6983 99.3247 43.759 99.2882 43.8132C99.2518 43.8673 99.205 43.9137 99.1506 43.9498C99.0962 43.9858 99.0353 44.0108 98.9712 44.0233Z" fill="white"/>
<path d="M108.605 33.6131V36.2226H85.0089V33.6131C85.0088 33.352 85.0602 33.0935 85.16 32.8522C85.2599 32.611 85.4062 32.3918 85.5908 32.2071C85.7753 32.0225 85.9944 31.876 86.2355 31.7762C86.4766 31.6763 86.735 31.6249 86.996 31.625H106.618C106.879 31.6249 107.138 31.6763 107.379 31.7762C107.62 31.876 107.839 32.0225 108.024 32.2071C108.208 32.3918 108.354 32.611 108.454 32.8522C108.554 33.0935 108.605 33.352 108.605 33.6131Z" fill="#B3B3B3"/>
<path d="M155.725 37.0398C155.589 36.5998 155.358 36.1951 155.049 35.8541C154.739 35.5131 154.359 35.2441 153.934 35.0662C153.51 34.8882 153.051 34.8055 152.591 34.824C152.131 34.8425 151.681 34.9616 151.272 35.1731L124.276 25.4821L123.087 32.2298L149.997 39.634C150.397 40.2979 151.027 40.7917 151.768 41.0218C152.508 41.252 153.307 41.2025 154.013 40.8827C154.719 40.563 155.283 39.9951 155.599 39.2869C155.914 38.5786 155.959 37.7791 155.725 37.0398Z" fill="#FFB8B8"/>
<path opacity="0.2" d="M155.725 37.0398C155.589 36.5998 155.358 36.1951 155.049 35.8541C154.739 35.5131 154.359 35.2441 153.934 35.0662C153.51 34.8882 153.051 34.8055 152.591 34.824C152.131 34.8425 151.681 34.9616 151.272 35.1731L124.276 25.4821L123.087 32.2298L149.997 39.634C150.397 40.2979 151.027 40.7917 151.768 41.0218C152.508 41.252 153.307 41.2025 154.013 40.8827C154.719 40.563 155.283 39.9951 155.599 39.2869C155.914 38.5786 155.959 37.7791 155.725 37.0398Z" fill="black"/>
<path d="M129.068 26.7116L126.518 33.3752C126.446 33.5648 126.333 33.7365 126.189 33.8787C126.044 34.0208 125.87 34.1301 125.679 34.199C125.488 34.2679 125.285 34.2949 125.083 34.278C124.88 34.2611 124.684 34.2009 124.507 34.1013L118.312 30.6123C117.345 30.2354 116.566 29.4901 116.147 28.5399C115.728 27.5896 115.703 26.5119 116.077 25.543C116.451 24.5741 117.193 23.7931 118.142 23.3712C119.09 22.9492 120.167 22.9209 121.137 23.2922L128.055 24.8275C128.253 24.8715 128.44 24.9577 128.601 25.0803C128.763 25.2028 128.897 25.3588 128.993 25.5376C129.089 25.7164 129.145 25.9138 129.158 26.1164C129.171 26.319 129.14 26.522 129.068 26.7116Z" fill="#F2F2F2"/>
<path d="M157.85 43.2098L148.177 47.6092L149.447 52.393C151.9 61.6309 152.55 71.255 151.364 80.7392L158.436 82.2171L164.299 67.2595L162.247 50.2487L157.85 43.2098Z" fill="#F2F2F2"/>
<path d="M176.83 65.3531C170.474 65.3531 165.295 69.9759 165.044 75.7648H188.616C188.365 69.9759 183.186 65.3531 176.83 65.3531Z" fill="#3F3D56"/>
<path d="M171.883 66.3507C171.552 40.2192 156.678 42.6233 156.678 42.6233C156.678 42.6233 156.956 50.7571 157.09 51.0101C166.568 68.9533 150.925 89.9892 131.013 86.1193C130.638 86.0463 130.277 85.9723 129.931 85.8972C127.408 85.3702 125.181 83.9013 123.702 81.7894C122.223 79.6775 121.603 77.0812 121.969 74.5285C123.931 58.7685 114.175 59.0474 114.175 59.0474H99.9095L92.5012 52.3763C92.2398 52.1408 91.9246 51.973 91.5833 51.8876C91.242 51.8022 90.885 51.8017 90.5435 51.8862C90.202 51.9707 89.8864 52.1377 89.6242 52.3725C89.3621 52.6072 89.1615 52.9027 89.0398 53.233L88.0868 55.8213C88.0868 55.8213 74.0168 57.2877 75.1893 71.0722H79.5392C79.5287 71.4639 79.5444 71.8558 79.5861 72.2454L112.05 71.9813C113.953 71.9658 115.633 73.5086 115.64 75.4127C115.642 75.8762 115.551 76.3354 115.371 76.7628C115.192 77.1901 114.928 77.5768 114.596 77.8998C114.263 78.2228 113.869 78.4754 113.437 78.6425C113.005 78.8096 112.544 78.8877 112.081 78.8723L106.847 78.6977C105.235 85.8833 109.192 90.7225 113.552 93.7654C117.657 96.5888 122.528 98.0858 127.51 98.0547H141.729C160.195 98.0547 163.42 82.5105 163.42 82.5105C173.093 78.4044 171.883 66.3507 171.883 66.3507Z" fill="#3F3D56"/>
<path d="M175.951 106.56C185.057 106.56 192.439 99.1739 192.439 90.0626C192.439 80.9513 185.057 73.5652 175.951 73.5652C166.844 73.5652 159.462 80.9513 159.462 90.0626C159.462 99.1739 166.844 106.56 175.951 106.56Z" fill="#3F3D56"/>
<path d="M175.951 94.1061C178.183 94.1061 179.992 92.2958 179.992 90.0626C179.992 87.8294 178.183 86.0191 175.951 86.0191C173.719 86.0191 171.909 87.8294 171.909 90.0626C171.909 92.2958 173.719 94.1061 175.951 94.1061Z" fill="white"/>
<path d="M92.7034 106.56C103.186 106.56 111.683 98.0578 111.683 87.5697C111.683 77.0816 103.186 68.5793 92.7034 68.5793C82.2212 68.5793 73.7236 77.0816 73.7236 87.5697C73.7236 98.0578 82.2212 106.56 92.7034 106.56Z" fill="#3F3D56"/>
<path d="M92.7034 92.2242C95.2726 92.2242 97.3553 90.1403 97.3553 87.5697C97.3553 84.999 95.2726 82.9151 92.7034 82.9151C90.1342 82.9151 88.0515 84.999 88.0515 87.5697C88.0515 90.1403 90.1342 92.2242 92.7034 92.2242Z" fill="white"/>
<path d="M148.205 48.909L144.724 39.4506C144.543 38.9577 144.46 38.4338 144.481 37.909C144.502 37.3841 144.626 36.8685 144.846 36.3916C145.067 35.9147 145.378 35.4858 145.764 35.1295C146.15 34.7732 146.602 34.4964 147.095 34.315L157.073 30.6397C157.939 30.3203 158.861 30.1749 159.784 30.2117C160.707 30.2485 161.614 30.4669 162.452 30.8544C163.291 31.2419 164.045 31.7908 164.672 32.4699C165.298 33.149 165.785 33.945 166.104 34.8123C166.392 35.5908 166.539 36.4144 166.538 37.2444C166.535 38.2984 166.296 39.3382 165.841 40.2885C165.385 41.2387 164.723 42.0754 163.904 42.7377C163.312 43.2128 162.647 43.5881 161.934 43.849L148.205 48.909Z" fill="#3F3D56"/>
<path d="M166.392 37.2443C166.391 38.2768 166.159 39.296 165.713 40.2269C165.266 41.1577 164.617 41.9766 163.812 42.6232C162.578 42.2975 161.43 41.7068 160.447 40.892C159.464 40.0773 158.67 39.0582 158.12 37.9054C157.571 36.7527 157.279 35.4941 157.265 34.217C157.25 32.94 157.514 31.6752 158.038 30.5105C159.043 30.2917 160.085 30.301 161.086 30.5377C162.088 30.7744 163.023 31.2325 163.824 31.8784C164.626 32.5242 165.272 33.3414 165.717 34.27C166.161 35.1985 166.392 36.2149 166.392 37.2443Z" fill="#F2F2F2"/>
<path d="M77.6808 72.9786C79.9472 72.9786 81.7845 70.7463 81.7845 67.9927C81.7845 65.239 79.9472 63.0068 77.6808 63.0068C75.4143 63.0068 73.577 65.239 73.577 67.9927C73.577 70.7463 75.4143 72.9786 77.6808 72.9786Z" fill="#F2F2F2"/>
<path d="M131.927 85.6416H135.52L137.23 76.3159L131.926 76.3162L131.927 85.6416Z" fill="#FFB8B8"/>
<path d="M131.01 84.4677L138.087 84.4674H138.087C138.68 84.4674 139.266 84.5841 139.813 84.8109C140.361 85.0376 140.858 85.37 141.277 85.7891C141.695 86.2081 142.028 86.7056 142.254 87.2531C142.481 87.8006 142.598 88.3874 142.598 88.98V89.1266L131.01 89.127L131.01 84.4677Z" fill="#2F2E41"/>
<path d="M136.098 81.814C136.056 81.814 136.014 81.812 135.972 81.808L130.999 81.4457C130.797 81.427 130.603 81.3624 130.431 81.2568C130.259 81.1511 130.113 81.0073 130.005 80.8365C129.897 80.6656 129.83 80.4723 129.809 80.2713C129.787 80.0703 129.812 79.8671 129.882 79.6774L136.538 64.7154C136.585 64.582 136.605 64.4402 136.595 64.2989C136.585 64.1577 136.546 64.02 136.48 63.8945C136.415 63.7676 136.323 63.656 136.211 63.567C136.1 63.4781 135.97 63.4138 135.832 63.3784C132.702 62.5598 124.672 60.3802 117.721 57.83C114.743 56.7373 112.867 55.1583 112.146 53.1368C111.196 50.4717 112.602 48.0412 112.662 47.9393L112.709 47.8593L119.25 48.4542L126.341 49.0577L141.881 57.3952C143.183 58.0998 144.172 59.2692 144.651 60.6706C145.13 62.072 145.064 63.6026 144.466 64.9574L137.302 81.0318C137.198 81.2646 137.029 81.4624 136.816 81.6012C136.602 81.74 136.353 81.8139 136.098 81.814Z" fill="#2F2E41"/>
<path d="M120.388 18.8529C124.364 18.8529 127.587 15.6278 127.587 11.6495C127.587 7.67111 124.364 4.44601 120.388 4.44601C116.412 4.44601 113.188 7.67111 113.188 11.6495C113.188 15.6278 116.412 18.8529 120.388 18.8529Z" fill="#FFB8B8"/>
<path d="M129.875 86.5214H133.469L135.178 77.1958L129.874 77.1961L129.875 86.5214Z" fill="#FFB8B8"/>
<path d="M128.958 85.3475L136.035 85.3472H136.036C136.628 85.3472 137.214 85.4639 137.762 85.6907C138.309 85.9175 138.806 86.2499 139.225 86.6689C139.644 87.0879 139.976 87.5854 140.202 88.1329C140.429 88.6804 140.546 89.2672 140.546 89.8598V90.0065L128.958 90.0069L128.958 85.3475Z" fill="#2F2E41"/>
<path d="M134.046 82.6939C134.004 82.6939 133.962 82.6919 133.92 82.6879L128.947 82.3256C128.746 82.3069 128.551 82.2423 128.379 82.1366C128.207 82.031 128.061 81.8872 127.953 81.7164C127.846 81.5455 127.778 81.3521 127.757 81.1512C127.736 80.9502 127.761 80.747 127.83 80.5572L134.486 65.5953C134.533 65.4619 134.553 65.3201 134.543 65.1788C134.533 65.0375 134.494 64.8998 134.428 64.7744C134.363 64.6475 134.271 64.5359 134.16 64.4469C134.048 64.358 133.919 64.2937 133.78 64.2583C130.65 63.4397 122.62 61.2601 115.669 58.7099C112.691 57.6172 110.815 56.0382 110.094 54.0167C109.144 51.3516 110.55 48.9211 110.61 48.8191L110.658 48.7392L117.198 49.3341L124.29 49.9376L139.829 58.2751C141.131 58.9796 142.12 60.1491 142.599 61.5505C143.078 62.9519 143.012 64.4825 142.414 65.8373L135.25 81.9117C135.146 82.1445 134.977 82.3423 134.764 82.4811C134.55 82.6199 134.301 82.6938 134.046 82.6939Z" fill="#2F2E41"/>
<path d="M122.608 22.9376L114.987 20.298C114.987 20.298 110.202 23.9758 112.501 33.0996C113.701 37.8078 113.351 42.7776 111.504 47.2713C111.282 47.8273 111.025 48.3691 110.737 48.8936C110.737 48.8936 119.237 59.1587 127.152 51.5332L124.074 36.7221C124.074 36.7221 128.91 26.897 122.608 22.9376Z" fill="#F2F2F2"/>
<path d="M121.282 19.0979C120.257 17.5633 119.448 15.4354 120.576 13.9753C121.69 12.5341 123.886 12.7464 125.592 12.1087C127.967 11.2204 129.345 8.42811 128.915 5.92743C128.486 3.42676 126.48 1.35378 124.089 0.505578C121.699 -0.34262 119.004 -0.0667665 116.664 0.909985C113.782 2.11238 111.311 4.43833 110.275 7.38469C109.238 10.3311 109.792 13.8687 111.942 16.1334C114.247 18.5613 117.865 19.2084 121.212 19.1691" fill="#2F2E41"/>
<path d="M114.585 6.00769C113.293 7.05938 111.323 6.59226 109.938 5.66927C108.552 4.74628 107.427 3.43199 105.927 2.70833C103.284 1.43254 100.087 2.28065 97.5141 3.69381C94.9411 5.10697 92.6602 7.05929 89.9423 8.16826C87.2245 9.27723 83.7563 9.33205 81.6983 7.23806C81.1918 8.70621 81.1504 10.295 81.5797 11.7875C82.009 13.2801 82.8881 14.6038 84.097 15.578C85.306 16.5522 86.7859 17.1295 88.3348 17.2311C89.8838 17.3327 91.4263 16.9536 92.752 16.1456C95.73 14.3307 97.3749 10.5252 100.715 9.5234C102.563 8.96907 104.548 9.41553 106.416 9.89912C108.284 10.3827 110.232 10.9052 112.117 10.4935C114.002 10.0819 115.766 8.38682 115.526 6.47117L114.585 6.00769Z" fill="#2F2E41"/>
<path d="M155.367 36.7464C155.178 36.3266 154.899 35.9535 154.549 35.6533C154.2 35.3531 153.79 35.1332 153.346 35.009C152.903 34.8848 152.438 34.8593 151.984 34.9344C151.529 35.0096 151.097 35.1834 150.717 35.4438L122.733 29.1594L122.385 36.0024L150.002 40.0279C150.482 40.6373 151.168 41.0496 151.931 41.1866C152.694 41.3236 153.48 41.1759 154.141 40.7714C154.803 40.3669 155.293 39.7337 155.519 38.9919C155.745 38.2501 155.691 37.4511 155.367 36.7464Z" fill="#FFB8B8"/>
<path d="M127.639 29.788L125.931 36.7154C125.883 36.9125 125.792 37.0968 125.666 37.2558C125.54 37.4147 125.381 37.5446 125.2 37.6365C125.019 37.7285 124.821 37.7803 124.618 37.7886C124.415 37.7968 124.213 37.7612 124.025 37.6843L117.447 34.9867C116.44 34.7328 115.575 34.0894 115.041 33.1979C114.508 32.3064 114.349 31.2396 114.601 30.2314C114.853 29.2233 115.494 28.3562 116.384 27.8205C117.274 27.2848 118.339 27.1242 119.348 27.3739L126.402 28.0433C126.604 28.0625 126.8 28.1251 126.975 28.2267C127.151 28.3284 127.303 28.4667 127.42 28.6322C127.538 28.7978 127.618 28.9868 127.656 29.1862C127.694 29.3857 127.688 29.5909 127.639 29.788V29.788Z" fill="#F2F2F2"/>
<path d="M152.134 42.1833C153.268 42.1833 154.186 41.2642 154.186 40.1303C154.186 38.9965 153.268 38.0773 152.134 38.0773C151.001 38.0773 150.083 38.9965 150.083 40.1303C150.083 41.2642 151.001 42.1833 152.134 42.1833Z" fill="#F2F2F2"/>
</g>
<defs>
<clipPath id="clip0">
<rect width="243" height="107" fill="white"/>
</clipPath>
</defs>
</svg>
